<svg width="28" height="28" xmlns="http://www.w3.org/2000/svg"><g fill="#0084D6" fill-rule="evenodd"><circle fill-opacity=".045" cx="15" cy="15" r="13"/><path d="M13 26a12.93 12.93 0 01-9.293-3.89 12.815 12.815 0 01-3.705-9.262l.134-.348.285-.181a4.212 4.212 0 002.708-2.158l.674-.258C6.665 10.99 9.486 8.79 9.486 5.984c0-.096-.014-.19-.027-.282l-.022-.172.52-.6A4.185 4.185 0 0014.013.775l.61-.533C21.107 1.047 26 6.56 26 13.066 26 20.198 20.169 26 13 26zM1.085 13.252A11.732 11.732 0 004.48 21.35 11.86 11.86 0 0013 24.916c6.57 0 11.917-5.315 11.917-11.85 0-5.77-4.2-10.685-9.862-11.664a5.265 5.265 0 01-4.487 4.562v.021a5.29 5.29 0 01-5.284 5.286c-.472 0-.95-.07-1.426-.207a5.278 5.278 0 01-2.773 2.188zm16.249-2.415a2.17 2.17 0 01-2.167-2.167 2.17 2.17 0 012.167-2.168A2.17 2.17 0 0119.5 8.67a2.17 2.17 0 01-2.166 2.167zm0-3.25a1.085 1.085 0 000 2.167 1.085 1.085 0 000-2.168zM8.125 17.34c-.895 0-1.624-.73-1.624-1.626 0-.896.729-1.625 1.624-1.625.896 0 1.625.729 1.625 1.625s-.729 1.626-1.625 1.626zm0-2.168a.543.543 0 000 1.084.543.543 0 000-1.084zm8.667 5.42a2.711 2.711 0 01-2.708-2.71 2.711 2.711 0 012.708-2.71 2.711 2.711 0 012.708 2.71 2.711 2.711 0 01-2.708 2.71zm0-4.336c-.896 0-1.625.73-1.625 1.626 0 .896.729 1.625 1.625 1.625s1.625-.729 1.625-1.625c0-.897-.73-1.626-1.625-1.626zM13 14.09a1.084 1.084 0 110-2.167 1.084 1.084 0 010 2.167zm-2.166 6.502a1.084 1.084 0 110-2.167 1.084 1.084 0 010 2.167zm-3.792 0a.542.542 0 110-1.083.542.542 0 010 1.083zm6.5-13.005a.542.542 0 110-1.083.542.542 0 010 1.083zm8.666 4.335a.542.542 0 110-1.083.542.542 0 010 1.083zm-1.083 6.503a.542.542 0 110-1.084.542.542 0 010 1.084zM2.71 15.172a.542.542 0 110-1.083.542.542 0 010 1.083zM9.75 2.167A1.084 1.084 0 119.75 0a1.084 1.084 0 010 2.167zM19.5 14.09a1.084 1.084 0 110-2.167 1.084 1.084 0 010 2.167zM5.417 8.669a2.17 2.17 0 01-2.166-2.167 2.17 2.17 0 012.166-2.167 2.17 2.17 0 012.167 2.167A2.17 2.17 0 015.417 8.67zm0-3.25c-.597 0-1.083.486-1.083 1.083 0 .598.486 1.084 1.083 1.084S6.501 7.1 6.501 6.502c0-.597-.487-1.083-1.084-1.083z" fill-rule="nonzero"/></g></svg>